<svg width="1024" height="1024" viewBox="0 0 1024 1024" fill="none" xmlns="http://www.w3.org/2000/svg">
<path d="M755.422 58H269.578C153.279 58 59 152.279 59 268.578V754.422C59 870.721 153.279 965 269.578 965H755.422C871.721 965 966 870.721 966 754.422V268.578C966 152.279 871.721 58 755.422 58Z" fill="url(#paint0_linear_936_28)"/>
<path d="M733.763 98H290.237C184.067 98 98 184.067 98 290.237V733.763C98 839.933 184.067 926 290.237 926H733.763C839.933 926 926 839.933 926 733.763V290.237C926 184.067 839.933 98 733.763 98Z" fill="url(#paint1_linear_936_28)"/>
<g filter="url(#filter0_d_936_28)">
<path d="M492.34 616.764L476.418 543.923C499.699 541.057 518.619 536.364 533.179 529.841C547.639 522.842 558.166 513.677 564.76 502.345C571.731 490.437 575.582 476.691 576.315 461.107C577.425 444.945 575.894 426.846 571.719 406.81C566.153 380.094 559.397 359.601 551.448 345.33C543.878 330.482 534.391 320.763 522.989 316.172C512.062 311.482 498.018 310.928 480.855 314.509C474.658 315.802 467.556 317.532 459.551 319.699C452.022 321.768 444.117 324.413 435.834 327.634C427.451 330.379 418.88 333.411 410.12 336.733L356 270.367C366.389 267.701 376.778 265.036 387.166 262.371C397.933 259.13 408.321 256.464 418.333 254.376C428.722 251.711 438.207 249.483 446.788 247.693C487.788 239.139 522.391 236.898 550.599 240.969C579.285 244.941 602.697 258.226 620.836 280.825C639.453 303.325 653.68 338.189 663.521 385.418C673.161 431.693 672.044 470.505 660.17 501.855C648.672 532.628 628.195 557.309 598.739 575.9C569.759 594.39 534.293 608.012 492.34 616.764ZM465.04 783C461.541 763.818 457.047 739.865 451.561 711.142C445.975 681.942 439.853 651.36 433.193 619.397C426.911 586.857 420.689 555.798 414.527 526.221C408.266 496.166 401.329 465.256 393.716 433.492C386.481 401.151 379.643 370.718 373.203 342.194C366.663 313.193 360.929 289.25 356 270.367L454.03 257.382C456.038 269.408 458.443 283.343 461.247 299.185C463.951 314.55 466.902 331.108 470.103 348.86C473.781 366.51 477.558 384.639 481.434 403.244C485.687 421.273 489.653 439.114 493.33 456.765C497.008 474.416 500.437 490.875 503.617 506.141C506.102 518.067 509.034 532.141 512.413 548.361C515.793 564.581 519.42 581.994 523.296 600.599C527.55 618.628 531.615 636.945 535.491 655.551C539.844 674.057 543.859 692.136 547.536 709.787C551.591 726.861 555.348 742.505 558.806 756.718L465.04 783Z" fill="url(#paint2_linear_936_28)"/>
</g>
<defs>
<filter id="filter0_d_936_28" x="352" y="239" width="322" height="552" filterUnits="userSpaceOnUse" color-interpolation-filters="sRGB">
<feFlood flood-opacity="0" result="BackgroundImageFix"/>
<feColorMatrix in="SourceAlpha" type="matrix" values="0 0 0 0 0 0 0 0 0 0 0 0 0 0 0 0 0 0 127 0" result="hardAlpha"/>
<feOffset dy="4"/>
<feGaussianBlur stdDeviation="2"/>
<feComposite in2="hardAlpha" operator="out"/>
<feColorMatrix type="matrix" values="0 0 0 0 0 0 0 0 0 0 0 0 0 0 0 0 0 0 0.25 0"/>
<feBlend mode="normal" in2="BackgroundImageFix" result="effect1_dropShadow_936_28"/>
<feBlend mode="normal" in="SourceGraphic" in2="effect1_dropShadow_936_28" result="shape"/>
</filter>
<linearGradient id="paint0_linear_936_28" x1="512.5" y1="58" x2="512.5" y2="965" gradientUnits="userSpaceOnUse">
<stop stop-color="#EB423E"/>
<stop offset="1" stop-color="#FFD781"/>
</linearGradient>
<linearGradient id="paint1_linear_936_28" x1="482.412" y1="882.081" x2="482.412" y2="142.817" gradientUnits="userSpaceOnUse">
<stop stop-color="#001126"/>
<stop offset="1" stop-color="#001126"/>
</linearGradient>
<linearGradient id="paint2_linear_936_28" x1="513" y1="239" x2="513" y2="783" gradientUnits="userSpaceOnUse">
<stop stop-color="#EB423E"/>
<stop offset="1" stop-color="#FFD781"/>
</linearGradient>
</defs>
</svg>
